<?xml version="1.0" encoding="UTF-8"?>
<!DOCTYPE svg PUBLIC "-//W3C//DTD SVG 1.1//EN" "http://www.w3.org/Graphics/SVG/1.1/DTD/svg11.dtd">
<!-- Creator: CorelDRAW 2021 (64 Bit Versão de avaliação) -->
<svg xmlns="http://www.w3.org/2000/svg" xml:space="preserve" width="460px" height="85px" version="1.1" style="shape-rendering:geometricPrecision; text-rendering:geometricPrecision; image-rendering:optimizeQuality; fill-rule:evenodd; clip-rule:evenodd"
viewBox="0 0 460 85"
 xmlns:xlink="http://www.w3.org/1999/xlink"
 xmlns:xodm="http://www.corel.com/coreldraw/odm/2003">
 <defs>
  <style type="text/css">
   <![CDATA[
    .fil7 {fill:none;fill-rule:nonzero}
    .fil0 {fill:#FEFEFE;fill-rule:nonzero}
    .fil2 {fill:#E6E7E8;fill-rule:nonzero}
    .fil5 {fill:#D2D3D5;fill-rule:nonzero}
    .fil3 {fill:#A9ABAE;fill-rule:nonzero}
    .fil6 {fill:#373435;fill-rule:nonzero}
    .fil4 {fill:#D6D9EE;fill-rule:nonzero}
    .fil1 {fill:#807FBC;fill-rule:nonzero}
   ]]>
  </style>
 </defs>
 <g id="Camada_x0020_1">
  <metadata id="CorelCorpID_0Corel-Layer"/>
  <g id="_2745930224256">
   <path class="fil0" d="M12.07 17.92l-0.23 -0.24c0.05,-0.29 0.14,-0.71 0.36,-1.17 0.14,-0.3 0.61,-1.17 2.67,-2.38 0.47,-0.27 2.2,-1.26 4.97,-1.97 0.52,-0.13 0.89,-0.21 1.07,-0.25 1.79,-0.39 4.38,-1.08 7.76,-2.34 5.17,-3.28 10.04,-4.09 16.98,-5.25 2.64,-0.45 5.95,-0.87 9.83,-1.02 1.98,-0.07 3.67,-0.06 4.95,-0.03 0.14,0.22 0.34,0.54 0.58,0.94 1.81,2.92 4.67,7.58 7.48,13.21 2.56,5.13 3.85,7.76 4.2,10.94 0.01,0.14 0.31,3.02 -0.18,5.93 -2.22,13.19 -18.49,21.07 -28.69,28.7 -0.85,0.63 -2.69,2.03 -5.43,2.14l-0.3 0c-2.12,-1.15 -4.25,-2.31 -6.37,-3.46l0 0c-0.49,-0.18 -1.1,-0.45 -1.78,-0.83 -2.84,-1.63 -4.26,-4 -4.97,-5.22 -1.38,-2.35 -1.88,-4.6 -2.08,-6.12 -0.13,-0.33 -0.28,-0.82 -0.15,-1.35 0.19,-0.77 0.9,-0.93 2.13,-2.08 2.27,-2.1 3.96,-3.33 4.44,-3.73 0.25,-0.21 0.5,-0.45 0.75,-0.76 0,-0.01 0.01,-0.01 0.01,-0.03 0.25,-0.31 0.48,-0.68 0.7,-1.12 0,-0.01 0.01,-0.01 0.01,-0.02 0.33,-0.64 0.66,-1.47 0.8,-2.42 0.05,-0.3 0.07,-0.6 0.07,-0.91 -0.78,1.51 -1.71,1.7 -2.79,2.25 -1.33,0.74 -4.77,1.69 -5.02,1.86l-0.11 -0.07c0.21,-0.31 0.4,-0.61 0.59,-0.89 -0.17,-0.69 -1.03,-1.43 -1.89,-1.75 -1.59,-0.57 -2.99,0.23 -3.2,0.36 -1.4,1.77 -3.88,4.42 -7.72,6.4 -1.88,0.97 -3.65,1.56 -5.14,1.92 -0.07,0.01 -0.14,0.03 -0.22,0.06 -0.5,0.14 -1.14,0.39 -1.15,0.71 -0.02,0.49 1.41,0.9 1.92,1.04 2.16,0.62 5.23,0.79 7.83,-0.09 -0.21,1.63 -0.45,3.85 -0.61,6.5 -0.21,3.74 -0.13,6.57 -0.11,7.28 0.21,6.61 1.17,10.1 2.05,11.98l0.14 -0.06c0.12,0.01 0.42,0.03 0.8,0.12l0.01 -0.06c0.13,-0.06 0.3,-0.16 0.47,-0.33 0.36,-0.4 0.38,-0.87 0.38,-1.01 -0.03,-0.16 -0.04,-0.33 -0.04,-0.51 0.01,-0.86 0.39,-2.04 1,-2.11 0.57,-0.07 1.1,0.81 1.2,0.97 0.19,0.31 0.27,0.59 0.41,1.15 0.09,0.32 0.15,0.65 0.24,1.27l0.07 -0.01c0.09,0.05 0.22,0.13 0.36,0.23 0.23,0.16 0.82,0.56 1.05,1.1 0.29,0.71 0.1,1.33 0.05,1.49 -0.8,1.91 -1.9,3.13 -2.59,3.78 -0.99,0.93 -2.32,2.18 -4.15,2.18 -0.88,-0.01 -1.61,-0.3 -2.25,-0.66 -3.94,-2.2 -6.62,-7.72 -6.62,-7.72 -2.77,-5.74 -3.09,-11.4 -3.28,-14.83 -0.02,-0.35 -0.03,-0.61 -0.04,-0.86 -0.09,-2.23 -0.19,-6.93 0.74,-13.76 0.59,-4.36 0.93,-6.9 1.97,-9.77 0.58,-1.62 1.56,-4.33 2.87,-6.04 0.12,-0.15 0.46,-0.58 0.78,-1.23 0.44,-0.87 0.63,-1.7 0.73,-2.38l-0.01 0c-0.27,-0.11 -0.84,-0.37 -1.21,-0.97 -0.49,-0.8 -0.31,-1.67 -0.2,-2.15 0.13,-0.61 0.38,-1.12 0.98,-1.97 1.09,-1.56 2.1,-2.55 2.1,-2.55 0.01,-0.01 0.02,-0.02 0.03,-0.03z"/>
   <path class="fil1" d="M30.78 40.41c0.31,-0.65 0.59,-1.44 0.8,-2.42 -0.14,0.95 -0.47,1.78 -0.8,2.42z"/>
   <path class="fil2" d="M14.75 48.88c-2.6,0.88 -5.67,0.71 -7.83,0.09 -0.51,-0.14 -1.94,-0.55 -1.92,-1.04 0.01,-0.32 0.65,-0.57 1.15,-0.71 0.07,-0.02 0.15,-0.04 0.22,-0.06 1.49,-0.36 3.26,-0.95 5.14,-1.92 3.84,-1.98 6.32,-4.63 7.72,-6.4 0.21,-0.13 1.61,-0.93 3.2,-0.36 0.86,0.32 1.72,1.06 1.89,1.75 -0.19,0.28 -0.38,0.58 -0.59,0.89 -1.87,2.72 -4.67,5.91 -8.22,7.46 -0.25,0.11 -0.5,0.21 -0.76,0.3z"/>
   <path class="fil2" d="M16.68 25.35c-0.21,0.05 -0.48,0.07 -0.76,-0.05 -0.34,-0.15 -0.5,-0.43 -0.55,-0.54l-0.17 -0.03c0.34,-0.35 0.69,-0.85 1.01,-1.31 0.07,-0.1 0.13,-0.19 0.2,-0.3 0.81,0.11 1.34,0.66 1.33,1.16 -0.01,0.45 -0.47,0.81 -0.79,0.96 -0.05,0.03 -0.14,0.07 -0.27,0.11z"/>
   <path class="fil3" d="M20.69 34.55c0.14,0.99 0.52,1.49 0.83,1.77 0.23,0.19 0.27,0.17 0.62,0.44 0.9,0.7 1.11,1.39 1.01,2.08 -0.38,-0.14 -0.54,-0.39 -1.15,-0.48 -1.09,-0.16 -1.88,0 -2.76,0.48 -0.51,0.71 -2.03,2.35 -3.32,3.42 -1.68,1.38 -2.19,1.59 -3.31,2.37 0.2,-0.92 0.41,-2.11 0.95,-3.56 0.45,-1.24 0.76,-2.33 1.75,-3.97 1.3,-2.17 3.25,-4.75 3.52,-5.01 -0.2,0.52 -0.53,1.59 -0.44,3.07 0.08,1.5 0.52,3.43 0.78,3.68 0.03,-0.59 0.13,-1.45 0.49,-2.41 0.31,-0.82 0.7,-1.44 1.03,-1.88z"/>
   <path class="fil3" d="M17.25 77.85c-0.88,-0.36 -2.94,-1.44 -4.72,-5.82 -1.76,-4.33 -1.71,-8.12 -1.64,-12.93 0.04,-3.69 0.63,-8.42 0.73,-8.65 0,0 0.01,-0.03 0,-0.06 -0.03,-0.2 -0.75,-0.23 -0.98,-0.24 -1.42,-0.08 -3.01,-0.39 -3.94,-0.66 -0.81,-0.23 -1.7,-0.72 -1.65,-0.9 0.06,-0.21 1.31,-0.09 2.33,0.16 0.97,0.23 1.01,0.41 1.78,0.58 0.81,0.17 1.46,0.1 2.73,-0.03 0.74,-0.08 1.72,-0.21 2.87,-0.47 0,0.04 -0.01,0.09 -0.01,0.17 0,0 -0.3,3.04 -0.47,5.91 -0.24,4.23 -0.41,7.05 -0.11,10.41 0.2,2.27 0.67,5.47 1.88,9.25 0.07,0.01 0.18,0.01 0.32,0.02 0.5,0.04 0.53,0.08 0.66,0.05 0.27,-0.07 0.44,-0.3 0.54,-0.42 0.03,-0.04 0.11,-0.15 0.19,-0.32 0.09,-0.21 0.11,-0.41 0.12,-0.53 0.05,0.26 0.15,0.64 0.4,1.04 0.31,0.49 0.6,0.61 0.81,1.06 0.1,0.23 0.21,0.59 0.14,1.11 -0.57,-0.74 -0.82,-0.87 -0.94,-0.82 -0.25,0.12 -0.18,1.15 0.37,1.86 0.29,0.38 0.66,0.59 0.9,0.7 -0.58,-0.02 -1.41,-0.11 -2.31,-0.47z"/>
   <path class="fil3" d="M22.93 38.57c0.58,2.06 -3.73,5.54 -4.3,5.99 -2,1.59 -3.59,2.86 -6.1,3.53 -4.08,1.09 -7.42,-0.27 -7.47,0.02 -0.05,0.25 2.62,1.34 5.85,1.33 0.76,0 2.07,-0.02 3.67,-0.5 2.83,-0.85 4.57,-2.55 6.02,-3.97 0.83,-0.8 1.95,-2.03 3.05,-3.72 1.34,-0.36 2.47,-0.74 3.33,-1.04 1.74,-0.61 2.13,-0.86 2.42,-1.26 0.75,-1.06 0.32,-2.55 0.13,-3.1 -0.3,-0.06 -0.5,-0.18 -0.62,-0.28 -0.53,-0.44 -0.69,-1.26 -0.46,-2.12 -0.14,0.03 -0.29,0.06 -0.43,0.09 -0.11,0.13 -0.31,0.35 -0.54,0.63 -1.72,2.01 -2.6,3.01 -3.12,3.82 -0.39,0.59 -0.67,1.04 -0.95,0.99 -0.43,-0.08 -0.62,-1.16 -0.66,-1.15 -0.02,0 0.17,0.71 0.18,0.74z"/>
   <path class="fil3" d="M30.34 20.65c1.43,-2.59 5.05,-8.24 11.88,-10.79 1.47,-0.55 2.89,-0.88 4.19,-1.07 -0.6,-0.19 -1.48,-0.42 -2.55,-0.47 -4.66,-0.24 -8.07,3.01 -9.07,3.96 -2.64,2.52 -3.73,5.41 -4.19,7.03l-0.26 1.34z"/>
   <path class="fil3" d="M33.02 16.1c-0.23,1.15 0.1,2.26 0.89,2.86 0.44,0.34 0.92,0.44 1.23,0.47 -0.35,0.16 -0.77,0.39 -0.74,0.57 0.04,0.2 0.57,0.15 0.99,0.33 1.16,0.5 1.28,2.62 1.31,3.12 0.12,1.99 -0.78,3.53 -1.26,4.22 0.23,-0.63 0.55,-1.79 0.39,-3.23 -0.09,-0.72 -0.26,-2.24 -1.48,-3.53 -1.24,-1.31 -2.78,-1.59 -3.31,-1.66 0.66,-1.05 1.32,-2.1 1.98,-3.15z"/>
   <path class="fil3" d="M25.59 24.44c0.89,1.03 1.78,2.96 0.98,4.49 -0.42,0.81 -1.18,1.23 -1.42,1.37 -0.74,0.41 -1.42,0.46 -1.73,0.49 -0.95,0.09 -2.39,0.36 -4.46,1.15 2.33,-1.22 3.85,-1.81 4.9,-2.09 0.33,-0.08 1.13,-0.28 1.67,-0.98 0.37,-0.47 0.45,-0.97 0.5,-1.2 0.32,-1.91 -1.37,-3.93 -1.62,-4.22 0.31,0.19 0.76,0.5 1.18,0.99z"/>
   <path class="fil3" d="M27.8 20.23c0.03,0.43 0.13,1.07 0.44,1.79 0.7,1.67 1.7,1.8 2.34,3.3 0.36,0.85 0.36,1.57 0.37,3.01 0.01,1.25 -0.15,2.16 -0.33,3.17 -0.62,3.63 -1.78,6.02 -2.12,6.7 -0.38,0.75 -0.74,1.35 -0.98,1.74 0.6,-0.16 1.52,-0.48 2.48,-1.17 0.86,-0.62 1.42,-1.3 1.76,-1.78 0.17,-2.83 0.4,-4.9 0.6,-6.41 0.1,-0.69 0.49,-3.57 -0.48,-5.47 -0.08,-0.15 -0.16,-0.29 -0.16,-0.29 -0.83,-1.39 -1.95,-1.82 -2.63,-2.41 -0.58,-0.5 -1.2,-1.44 -1.29,-3.39l0 1.21z"/>
   <path class="fil3" d="M14.28 25.37c0.08,0.26 1.56,0.17 1.6,-0.11 0.02,-0.12 -0.28,-0.28 -0.61,-0.42 0.49,-0.55 0.98,-1.1 1.47,-1.65 0.16,0.19 0.39,0.4 0.63,0.36 0.27,-0.04 0.42,-0.38 0.72,-1.3 0.53,-1.68 0.53,-2.25 1.04,-3.12 0.28,-0.5 0.5,-0.74 0.46,-0.77 -0.08,-0.07 -2.23,1.46 -3.07,3.86 -0.25,0.73 -0.34,1.43 -1.01,2.13 -0.61,0.64 -1.29,0.83 -1.23,1.02z"/>
   <path class="fil3" d="M14.96 26c0.15,-0.11 0.33,-0.23 0.55,-0.33 0.69,-0.29 1.08,-0.03 1.65,-0.11 1.29,-0.18 2.02,-1.9 2.16,-2.22 0.24,-0.55 0.34,-1.12 0.27,-1.15 -0.06,-0.02 -0.27,0.5 -0.79,1.29 -0.42,0.64 -0.64,0.97 -0.99,1.21 -0.5,0.34 -1.03,0.43 -1.39,0.49 -0.39,0.06 -0.72,0.06 -0.96,0.05l-0.5 0.77z"/>
   <path class="fil3" d="M50.23 37.5c-0.84,-0.19 -1.83,-0.13 -2.71,0.41 -0.7,0.42 -1.02,1.02 -1.46,1.89 -0.54,1.05 -0.58,1.58 -1.03,3.03 -0.61,1.99 -0.91,2.99 -1.6,3.76 -0.9,1.03 -2.02,1.39 -2.85,1.67 -2.26,0.74 -4.28,0.28 -5.3,0.04 -0.75,-0.18 -1.35,-0.4 -1.75,-0.57 0.69,0.17 1.71,0.37 2.96,0.4 1.1,0.03 2.16,0.06 3.4,-0.4 0.44,-0.16 1.77,-0.67 2.82,-1.91 1.13,-1.34 0.78,-2.17 1.97,-5.23 0.74,-1.93 1.12,-2.9 1.91,-3.41 1.89,-1.22 4.84,0.29 5.78,0.82 -0.71,-0.17 -1.42,-0.33 -2.14,-0.5z"/>
   <path class="fil3" d="M31.42 25.59c0.74,1.72 1.82,4.9 1.56,8.95 -0.16,2.49 -0.4,6.18 -2.71,8.62 -0.45,0.48 -1.71,1.69 -3.45,3.7 -0.78,0.91 -1.18,1.36 -1.32,1.64 -1.23,2.5 0.59,5.78 1.4,7.23 1.86,3.34 4.72,5.19 5.67,5.83 2.48,1.67 4.36,2.85 4.36,2.85 0.62,0.39 1.09,0.68 1.07,0.7 -0.03,0.06 -3.36,-1.79 -6.41,-3.49 -0.81,-0.32 -1.93,-0.85 -3.09,-1.75 -1.49,-1.16 -2.32,-2.36 -2.93,-3.26 -0.39,-0.58 -2.01,-2.81 -2.56,-6.11 -0.06,-0.42 -0.1,-0.77 -0.12,-1.01 -0.03,-0.07 -0.07,-0.17 -0.11,-0.29 -0.03,-0.13 -0.13,-0.47 -0.08,-0.83 0.01,-0.08 -0.03,-0.44 0.31,-0.74 0.64,-0.56 1.58,-1.25 2.07,-1.69 0.53,-0.47 0.41,-0.37 2.04,-1.84 2.41,-2.2 2.35,-1.76 2.93,-2.52 1.22,-1.56 1.51,-3.34 1.71,-4.59 0.19,-1.13 0.18,-2.06 0.18,-2.64 -0.01,-1.22 -0.14,-2.25 -0.27,-3.01l-0.25 -5.75z"/>
   <path class="fil3" d="M33.13 62.21c1.43,1 2.58,1.85 3.24,1.42 0.36,-0.23 0.46,-0.69 0.54,-1.08 0.25,-1.21 -0.26,-2.68 -1.25,-3.27 -0.37,-0.23 -0.58,-0.19 -1.13,-0.55 -0.48,-0.31 -0.8,-0.66 -1,-0.9 0.24,0.14 0.61,0.33 1.08,0.52 0.68,0.26 1.11,0.32 1.53,0.42 0.98,0.24 2.22,0.55 2.79,1.52 0.23,0.39 0.42,1.32 0.32,2.11 -0.01,0.09 -0.05,0.33 0.01,0.35 0.1,0.04 0.38,-0.5 0.52,-0.84 0.16,-0.41 0.35,-1.1 0.21,-2.1 0.81,-0.55 1.63,-1.12 2.46,-1.7 1.04,-0.72 2.05,-1.45 3.03,-2.17 0.36,0.05 0.87,0.18 1.42,0.5 0.99,0.58 1.46,1.42 1.64,1.8 -0.09,-0.44 -0.35,-1.32 -1.11,-2.1 -0.39,-0.4 -0.79,-0.66 -1.1,-0.82 0.41,0.03 0.86,0.09 1.35,0.21 1.43,0.34 2.51,0.99 3.2,1.51 1.04,-0.55 2.33,-1.3 3.78,-2.25 1.03,-0.68 2.45,-1.67 4.19,-3.08 4.23,-3.44 7.25,-5.89 9.77,-9.86 1.06,-1.67 2.56,-4.04 3.33,-7.56 0.62,-2.85 0.51,-5.3 0.32,-6.94 0.38,1.29 0.82,3.36 0.6,5.89 -0.32,3.64 -1.88,6.19 -2.82,7.84 -1.42,2.5 -2.9,3.98 -4.21,5.37 -1.88,2 -3.23,3.17 -5.64,5.04 -0.93,0.73 -2.43,1.84 -5.25,3.84 -1.35,0.97 -2.57,1.73 -4.08,2.77 -2.68,1.83 -2.38,1.44 -3.77,2.54 -0.06,0.06 -0.79,0.48 -2.41,1.71 -0.42,0.31 -1.29,1.02 -1.85,1.33 -0.68,0.37 -1.37,0.75 -1.78,0.9 -0.25,0.09 -1.61,0.53 -2.28,0.53 -0.42,0 -0.7,0.18 -1.67,-0.44 -1.84,-1.07 -3.74,-2 -3.98,-2.46z"/>
   <path class="fil3" d="M67.18 26.34c0.22,0.55 0.33,1.04 0.4,1.4 -0.07,-0.18 -0.21,-0.49 -0.49,-0.78 -0.08,-0.09 -0.52,-0.54 -1.22,-0.65 -1.11,-0.19 -1.93,0.64 -2.01,0.72 0.13,0.57 0.25,1.24 0.32,1.99 0.07,0.89 0.05,1.69 -0.01,2.36 -0.08,-2.47 -0.62,-4.4 -1.32,-5.27 -0.38,-0.47 -0.81,-0.76 -0.81,-0.76 -0.63,-0.42 -1.25,-0.52 -1.75,-0.6 -1.55,-0.24 -1.89,-0.21 -2.84,-0.35 -1.11,-0.17 -2.14,-0.34 -3.22,-1.01 -0.52,-0.32 -0.9,-0.67 -1.15,-0.92 2.01,0.97 3.62,1.16 4.74,1.15 0.79,-0.01 2.06,-0.13 2.98,-0.22 1.99,-0.19 2.36,-0.31 3.14,-0.11 0.49,0.13 1.6,0.5 2.4,1.5 0.45,0.55 0.69,1.15 0.84,1.55z"/>
   <path class="fil3" d="M67.15 33.76c-0.3,0.97 -0.76,2.19 -1.52,3.49 -0.69,1.17 -1.42,2.1 -2.06,2.79 0.17,0.68 0.33,1.34 0.5,2.02 -0.33,-0.36 -0.66,-0.72 -0.99,-1.07 -1.58,1.93 -3.46,3.99 -5.67,6.08 -3.53,3.33 -7.01,5.85 -10.06,7.76 0.42,0.07 1.11,0.24 1.81,0.74 1.23,0.87 1.61,2.13 1.71,2.53 1.99,-1.16 12.84,-7.56 18.17,-15.26 0.86,-1.25 2.29,-3.36 3.2,-6.49 0.27,-0.95 1.13,-4.18 0.65,-8.39 -0.38,-3.28 -1.42,-5.71 -5.17,-12.39 -1.91,-3.4 -4.34,-7.57 -7.29,-12.3 -3.38,0.14 -6.77,0.28 -10.15,0.41 4.18,-0.04 6.36,1.23 7.58,2.44 4.59,4.56 0.96,13.62 6.08,17.17 1.07,0.74 2.39,1.15 3.08,2.67 0.76,1.64 0.02,2.92 0.41,5.52 0.24,1.59 0.78,2.84 1.19,3.64 -0.49,-0.46 -0.98,-0.91 -1.47,-1.36z"/>
   <path class="fil4" d="M10.43 24.93c-0.02,0.69 -0.17,1.2 -0.31,1.65 -0.17,0.53 -0.4,1.08 -1.2,2.42 -0.7,1.18 -0.86,1.32 -1.27,2.01 -0.57,0.96 -0.86,1.72 -1.41,3.18 -0.4,1.04 -0.93,2.46 -1.4,4.36 -0.26,1.07 -0.45,2.34 -0.82,4.83 -0.36,2.4 -0.54,3.6 -0.68,5.04 -0.22,2.18 -0.28,3.85 -0.34,5.42 -0.06,1.78 -0.11,3.05 -0.06,4.79 0.03,1.24 0.09,3.12 0.44,5.56 0.2,1.37 0.49,3.41 1.29,5.99 0.33,1.05 0.73,2.33 1.49,3.92 1.43,2.99 3.09,4.89 3.99,5.83 1.96,2.06 3.26,2.57 4.09,2.75 0.37,0.08 1.12,0.23 2.04,0.01 0.76,-0.18 1.3,-0.54 1.62,-0.78 -0.31,0.1 -0.74,0.21 -1.27,0.27 -0.17,0.02 -1.2,0.13 -2.14,-0.1 -1.13,-0.26 -1.82,-0.96 -2.77,-1.88 -0.47,-0.45 -1,-1.05 -1.53,-1.8 0.1,-0.11 0.29,-0.3 0.6,-0.42 0.41,-0.16 0.77,-0.11 0.92,-0.07 -0.2,-0.15 -0.52,-0.35 -0.96,-0.47 -0.54,-0.14 -1,-0.1 -1.25,-0.05 -0.23,-0.37 -0.41,-0.66 -0.51,-0.84 -1.58,-2.68 -2.35,-4.78 -2.62,-5.57 -0.04,-0.12 -0.08,-0.22 -0.1,-0.29 0.4,-0.09 0.9,-0.16 1.47,-0.15 0.24,0.01 0.47,0.03 0.68,0.06 -0.33,-0.19 -0.78,-0.4 -1.34,-0.55 -0.4,-0.11 -0.77,-0.16 -1.08,-0.18 -0.56,-2.28 -1,-4.65 -1.28,-7.1 -0.01,-0.11 -0.02,-0.22 -0.04,-0.33 0.28,-0.08 0.66,-0.17 1.11,-0.18 0.65,-0.02 1.17,0.12 1.51,0.23 -0.26,-0.2 -0.61,-0.43 -1.06,-0.63 -0.64,-0.28 -1.22,-0.38 -1.63,-0.41 -0.07,-2.58 -0.09,-5.21 -0.05,-7.88 0.01,-0.32 0.01,-0.63 0.02,-0.94 0.27,-0.08 0.68,-0.16 1.19,-0.13 0.66,0.04 1.17,0.28 1.44,0.43 -0.28,-0.24 -0.68,-0.54 -1.2,-0.79 -0.53,-0.26 -1.02,-0.4 -1.39,-0.47 0.02,-1.18 0.07,-2.41 0.17,-3.7 0.13,-1.74 0.33,-3.37 0.57,-4.89 0.27,-0.07 0.67,-0.14 1.15,-0.08 0.82,0.09 1.39,0.5 1.63,0.69 -0.23,-0.33 -0.8,-1.06 -1.79,-1.39 -0.32,-0.1 -0.62,-0.15 -0.86,-0.16 0.03,-0.23 0.08,-0.56 0.14,-0.95 0.13,-0.79 0.56,-3.2 1.6,-6.24 0.94,-2.72 1.95,-4.73 2.48,-5.72 0.22,-0.41 0.41,-0.75 0.54,-0.99 0.18,-0.08 0.4,-0.15 0.67,-0.21 0.31,-0.06 0.59,-0.07 0.8,-0.06 -0.17,-0.06 -0.44,-0.12 -0.77,-0.11 -0.26,0.01 -0.47,0.06 -0.62,0.11 0.06,-0.18 0.14,-0.44 0.2,-0.75 0.11,-0.56 0.11,-1.01 0.11,-1.38 0,-0.6 -0.05,-0.78 -0.03,-1.49 0.01,-0.1 0.01,-0.25 0.03,-0.45 0.05,-0.61 0.15,-1.11 0.22,-1.42 -0.16,0.31 -0.36,0.8 -0.42,1.41 -0.04,0.41 0.01,0.61 -0.01,1.04z"/>
   <path class="fil4" d="M13.65 22.77c-0.06,0.92 -0.02,1.28 0.03,1.53 0.08,0.44 0.13,0.72 0.35,0.85 0.38,0.22 0.95,-0.13 1.14,-0.25 1.09,-0.67 1.38,-2.09 1.46,-2.66 -0.2,0.43 -0.57,1.09 -1.19,1.75 -0.47,0.51 -0.88,0.95 -1.2,0.86 -0.16,-0.04 -0.63,-0.31 -0.51,-2.99 -0.02,0.23 -0.05,0.54 -0.08,0.91z"/>
   <path class="fil5" d="M20.18 39.06c-0.94,2.42 -2.81,3.75 -4.37,4.82 -3.35,2.3 -6.79,3.14 -7.69,3.24 -0.16,0.02 -1,0.1 -2.07,0.4 -0.24,0.07 -0.44,0.14 -0.56,0.18 -0.03,0.01 -0.24,0.1 -0.25,0.25 -0.01,0.1 0.09,0.18 0.24,0.29 0.17,0.13 0.41,0.29 0.73,0.46 -0.3,-0.07 -0.65,-0.18 -0.95,-0.38 -0.14,-0.1 -0.23,-0.19 -0.25,-0.32 -0.02,-0.12 0.04,-0.22 0.07,-0.26 0.1,-0.17 0.27,-0.23 0.43,-0.3 0.4,-0.15 0.61,-0.22 0.71,-0.25 0.77,-0.15 1.5,-0.45 2.26,-0.62 1.74,-0.39 3.93,-1.65 4.29,-1.86 0.98,-0.56 2.58,-1.59 4.25,-3.26 0.98,-0.97 1.7,-1.89 2.22,-2.61 0.39,-0.17 0.79,-0.35 1.19,-0.52 -0.05,0.18 -0.13,0.44 -0.25,0.74z"/>
   <path class="fil4" d="M12.99 16.42c0.35,-0.54 0.61,-0.93 1.18,-1.43 0.84,-0.73 1.69,-1.1 2.11,-1.28 2.68,-1.16 4.46,-1.66 4.43,-1.75 -0.02,-0.08 -1.35,0.09 -2.78,0.63 -0.6,0.23 -1.13,0.51 -2.2,1.07 -1.27,0.68 -1.85,1.08 -2.35,1.49 -0.62,0.51 -0.87,0.83 -1.05,1.13 -0.33,0.54 -0.44,1.05 -0.49,1.4 -0.22,0.31 -0.57,0.81 -1.02,1.42 -0.98,1.35 -1.21,1.56 -1.54,2.22 -0.64,1.28 -0.58,2.06 -0.55,2.3 0.02,0.23 0.07,0.59 0.31,0.98 0.41,0.68 1.1,0.92 1.33,0.99 0.02,-0.14 0.03,-0.27 0.05,-0.4 -0.12,-0.04 -0.27,-0.1 -0.41,-0.22 -0.54,-0.49 -0.36,-1.47 -0.29,-1.85 0.15,-0.83 0.53,-1.44 2.09,-3.32 1.27,-1.54 1.93,-2.32 2.79,-3.14 0.31,-0.29 1.13,-1.06 2.3,-1.93 1.04,-0.78 2,-1.38 2.79,-1.83 -1.27,0.4 -2.19,0.91 -2.79,1.31 -0.4,0.26 -1.63,1.09 -3.18,2.24 -0.35,0.26 -0.91,0.67 -1.01,0.58 -0.02,-0.02 -0.05,-0.1 0.28,-0.61z"/>
   <path class="fil6" d="M17.09 14.09c-1.04,0.82 -2.06,1.62 -3.03,2.47 -0.48,0.44 -0.97,0.86 -1.42,1.32 -0.45,0.43 -0.89,0.92 -1.29,1.41 -0.42,0.49 -0.81,1 -1.18,1.52 -0.38,0.52 -0.72,1.04 -0.89,1.61 -0.18,0.6 -0.29,1.21 -0.11,1.79 0.16,0.58 0.62,1.07 1.2,1.38 -0.64,-0.15 -1.25,-0.59 -1.56,-1.24 -0.15,-0.33 -0.22,-0.69 -0.23,-1.04 -0.01,-0.36 0.05,-0.7 0.11,-1.04 0.14,-0.71 0.52,-1.32 0.87,-1.87 0.37,-0.56 0.77,-1.09 1.19,-1.6 0.44,-0.51 0.87,-1 1.39,-1.45 0.49,-0.44 1,-0.87 1.54,-1.26 1.07,-0.78 2.2,-1.46 3.41,-2z"/>
   <path class="fil6" d="M10.43 24.93c-0.02,1.07 -0.26,2.14 -0.73,3.11 -0.23,0.49 -0.54,0.95 -0.85,1.37 -0.31,0.43 -0.57,0.89 -0.82,1.36 -0.49,0.94 -0.89,1.93 -1.26,2.93 -0.36,1 -0.73,2 -1.02,3.02 -0.58,2.03 -0.87,4.14 -1.14,6.26 -0.27,2.12 -0.55,4.23 -0.72,6.35 -0.18,2.12 -0.29,4.25 -0.29,6.37 -0.01,2.12 0.11,4.25 0.28,6.37 0.31,4.22 1.22,8.42 3.04,12.24l0.02 0.04 0.29 0.56c0.11,0.2 0.22,0.39 0.34,0.59 0.22,0.39 0.46,0.78 0.71,1.16 0.5,0.76 1.03,1.5 1.6,2.2 0.58,0.7 1.2,1.37 1.88,1.95 0.17,0.15 0.35,0.29 0.53,0.42 0.18,0.14 0.35,0.28 0.55,0.4 0.19,0.12 0.37,0.24 0.56,0.35 0.2,0.11 0.39,0.21 0.6,0.3 0.8,0.35 1.7,0.42 2.55,0.19 0.85,-0.23 1.6,-0.75 2.29,-1.33 0.7,-0.59 1.37,-1.21 1.92,-1.94 0.55,-0.72 1.02,-1.51 1.39,-2.35l-0.01 0c0.1,-0.26 0.14,-0.54 0.12,-0.83 -0.02,-0.27 -0.09,-0.56 -0.23,-0.8 -0.3,-0.5 -0.79,-0.84 -1.27,-1.16 0.25,0.15 0.5,0.3 0.73,0.48 0.23,0.18 0.45,0.38 0.61,0.63 0.16,0.26 0.25,0.55 0.28,0.84 0.03,0.3 0,0.61 -0.09,0.9l0 0 0 0c-0.34,0.86 -0.78,1.69 -1.33,2.44 -0.53,0.77 -1.2,1.44 -1.88,2.06 -0.69,0.63 -1.48,1.19 -2.41,1.47 -0.93,0.29 -1.97,0.23 -2.86,-0.15 -0.22,-0.08 -0.44,-0.19 -0.65,-0.3 -0.21,-0.12 -0.41,-0.24 -0.61,-0.36 -0.21,-0.12 -0.39,-0.27 -0.58,-0.4 -0.2,-0.14 -0.39,-0.28 -0.56,-0.44 -0.73,-0.59 -1.39,-1.26 -2,-1.97 -0.61,-0.71 -1.17,-1.46 -1.68,-2.24 -0.26,-0.39 -0.51,-0.78 -0.74,-1.18 -0.12,-0.2 -0.24,-0.4 -0.35,-0.61l-0.17 -0.31 -0.08 -0.15 -0.04 -0.08c-0.01,-0.03 -0.04,-0.09 -0.06,-0.13l0.02 0.05c-1.9,-3.9 -2.86,-8.2 -3.2,-12.48 -0.16,-2.14 -0.26,-4.28 -0.24,-6.43 0.02,-2.15 0.14,-4.29 0.34,-6.43 0.09,-1.07 0.22,-2.13 0.35,-3.2 0.14,-1.06 0.3,-2.12 0.46,-3.17 0.32,-2.12 0.66,-4.25 1.3,-6.31 0.32,-1.04 0.71,-2.03 1.1,-3.03 0.41,-0.99 0.85,-1.97 1.38,-2.91 0.27,-0.47 0.55,-0.93 0.88,-1.36 0.34,-0.42 0.64,-0.84 0.89,-1.31 0.49,-0.94 0.79,-1.98 0.86,-3.05z"/>
   <path class="fil6" d="M16.22 74.58c0.63,-0.06 1.28,0.06 1.85,0.36 0.29,0.16 0.55,0.37 0.74,0.63 0.2,0.27 0.32,0.58 0.33,0.9 -0.25,-0.58 -0.69,-0.99 -1.2,-1.27 -0.53,-0.29 -1.11,-0.46 -1.72,-0.62z"/>
   <path class="fil6" d="M18.58 77.71c-0.52,-0.35 -1,-0.76 -1.44,-1.22 -0.43,-0.47 -0.79,-1 -1.09,-1.56 -0.6,-1.13 -0.99,-2.35 -1.31,-3.57 -0.62,-2.46 -0.87,-4.99 -1.04,-7.5 -0.14,-2.52 -0.13,-5.04 0,-7.56 0.06,-1.26 0.16,-2.51 0.28,-3.77 0.14,-1.25 0.3,-2.5 0.51,-3.74l0.55 0.07c-0.12,1.25 -0.25,2.49 -0.33,3.74 -0.09,1.24 -0.17,2.49 -0.21,3.74 -0.1,2.49 -0.16,4.99 -0.03,7.48 0.08,2.49 0.3,4.98 0.77,7.42 0.25,1.22 0.57,2.43 1.09,3.55 0.25,0.56 0.55,1.1 0.94,1.59 0.39,0.48 0.83,0.93 1.31,1.33z"/>
   <path class="fil6" d="M19.24 38.84c-0.38,0.54 -0.8,1.06 -1.22,1.56 -0.44,0.5 -0.9,0.98 -1.38,1.44 -0.96,0.92 -2.02,1.74 -3.13,2.46 -1.13,0.71 -2.31,1.34 -3.55,1.82 -1.23,0.49 -2.51,0.87 -3.81,1.1 0.63,-0.2 1.26,-0.4 1.87,-0.63 0.62,-0.22 1.23,-0.47 1.83,-0.74 1.19,-0.54 2.35,-1.17 3.45,-1.87 1.1,-0.71 2.15,-1.5 3.14,-2.36 0.99,-0.86 1.91,-1.8 2.8,-2.78z"/>
   <path class="fil6" d="M28.45 33.45l-0.43 0.11 0.01 -0.01c-0.7,1.17 -1.25,2.42 -1.87,3.64 -0.32,0.61 -0.62,1.23 -0.95,1.82l-0.52 0.89 -0.27 0.44 -0.28 0.43c-1.5,2.3 -3.33,4.4 -5.51,6.1 -0.54,0.42 -1.11,0.82 -1.7,1.17 -0.3,0.18 -0.6,0.35 -0.91,0.51 -0.16,0.07 -0.31,0.15 -0.48,0.22 -0.17,0.06 -0.33,0.11 -0.5,0.16 -1.33,0.4 -2.7,0.62 -4.08,0.66 -1.38,0.02 -2.76,-0.14 -4.08,-0.54 -0.33,-0.1 -0.66,-0.2 -0.98,-0.34 -0.31,-0.14 -0.65,-0.27 -0.88,-0.56 -0.05,-0.08 -0.09,-0.19 -0.05,-0.28 0.02,-0.1 0.09,-0.18 0.15,-0.23 0.14,-0.12 0.3,-0.19 0.46,-0.26 0.32,-0.12 0.65,-0.2 0.99,-0.27 -0.33,0.08 -0.66,0.19 -0.97,0.33 -0.15,0.07 -0.3,0.15 -0.42,0.26 -0.13,0.1 -0.18,0.27 -0.07,0.39 0.2,0.24 0.54,0.37 0.84,0.49 0.32,0.12 0.65,0.21 0.98,0.29 1.31,0.35 2.67,0.48 4.02,0.42 1.35,-0.08 2.7,-0.29 3.98,-0.69 0.16,-0.05 0.33,-0.11 0.48,-0.17 0.14,-0.05 0.3,-0.13 0.45,-0.21 0.3,-0.15 0.59,-0.31 0.88,-0.49 0.57,-0.35 1.12,-0.75 1.66,-1.16 1.06,-0.83 2.06,-1.76 2.98,-2.76 0.9,-1.02 1.75,-2.08 2.51,-3.21 1.58,-2.21 2.63,-4.76 4.12,-7.06l0 -0.01 0.01 0 0.43 -0.08z"/>
   <path class="fil6" d="M28.67 9.57c-1.49,0.64 -3.02,1.2 -4.57,1.68 -0.77,0.24 -1.56,0.45 -2.34,0.65 -0.79,0.2 -1.58,0.35 -2.35,0.58 -1.55,0.42 -3.06,1 -4.46,1.78 -0.7,0.39 -1.38,0.82 -1.96,1.37 -0.29,0.26 -0.56,0.56 -0.75,0.91 -0.18,0.36 -0.32,0.74 -0.4,1.14 0.04,-0.41 0.14,-0.81 0.31,-1.18 0.16,-0.38 0.42,-0.71 0.71,-1.01 0.57,-0.59 1.25,-1.06 1.94,-1.49 1.4,-0.85 2.94,-1.44 4.5,-1.9 0.79,-0.21 1.59,-0.36 2.38,-0.55 0.78,-0.17 1.56,-0.39 2.34,-0.59 0.78,-0.2 1.56,-0.43 2.33,-0.67 0.78,-0.22 1.54,-0.48 2.32,-0.72z"/>
   <path class="fil6" d="M24.11 39.76c-0.66,-0.64 -1.43,-1.09 -2.28,-1.23 -0.43,-0.08 -0.86,-0.08 -1.3,-0.02 -0.43,0.05 -0.86,0.17 -1.29,0.33 0.35,-0.3 0.78,-0.51 1.23,-0.63 0.46,-0.12 0.95,-0.15 1.42,-0.07 0.48,0.09 0.93,0.28 1.31,0.56 0.39,0.28 0.7,0.64 0.91,1.06z"/>
   <path class="fil6" d="M25.82 37.67c0.13,-0.59 0.53,-1.12 1.04,-1.46 0.52,-0.34 1.15,-0.51 1.75,-0.43 -0.56,0.22 -1.07,0.44 -1.53,0.75 -0.47,0.3 -0.85,0.69 -1.26,1.14z"/>
   <path class="fil6" d="M22.89 49.49c0.25,1.31 0.62,2.59 1.12,3.81 0.51,1.22 1.16,2.37 1.9,3.47 0.73,1.09 1.61,2.08 2.62,2.93 1.01,0.84 2.15,1.52 3.38,2.04 -0.64,-0.18 -1.26,-0.44 -1.86,-0.73 -0.6,-0.32 -1.17,-0.68 -1.71,-1.08 -1.08,-0.81 -1.99,-1.83 -2.75,-2.95 -0.75,-1.11 -1.4,-2.3 -1.85,-3.57 -0.23,-0.63 -0.42,-1.28 -0.57,-1.93 -0.13,-0.66 -0.24,-1.32 -0.28,-1.99z"/>
   <path class="fil6" d="M13.8 24.77c0.12,0.14 0.25,0.26 0.39,0.29 0.14,0.04 0.26,0 0.38,-0.09 0.23,-0.16 0.43,-0.44 0.62,-0.7 0.38,-0.55 0.74,-1.16 1.12,-1.74 0.38,-0.58 0.78,-1.14 1.21,-1.69 0.43,-0.55 0.89,-1.09 1.41,-1.58 -0.25,0.66 -0.56,1.29 -0.9,1.91 -0.34,0.61 -0.69,1.22 -1.08,1.8 -0.38,0.58 -0.79,1.15 -1.29,1.68 -0.26,0.26 -0.54,0.52 -0.94,0.67 -0.19,0.06 -0.45,0.07 -0.63,-0.07 -0.17,-0.12 -0.24,-0.31 -0.29,-0.48z"/>
   <path class="fil7" d="M16.64 25.38c0.61,-0.13 1.04,-0.6 1.06,-1.06 0.02,-0.62 -0.66,-1.29 -1.57,-1.18"/>
   <path class="fil6" d="M15.15 24.71c0.34,0.22 0.68,0.38 1.02,0.41 0.34,0.03 0.67,-0.03 1,-0.15 0.33,-0.12 0.64,-0.3 0.94,-0.5 0.31,-0.21 0.6,-0.46 0.92,-0.72 -0.11,0.4 -0.33,0.75 -0.62,1.06 -0.28,0.31 -0.63,0.56 -1.04,0.71 -0.4,0.15 -0.88,0.19 -1.31,0.04 -0.43,-0.14 -0.75,-0.47 -0.91,-0.85z"/>
   <path class="fil6" d="M31.58 19.31c0.83,0.16 1.61,0.54 2.3,1.05 0.35,0.25 0.65,0.56 0.94,0.89 0.27,0.33 0.51,0.69 0.71,1.08 0.39,0.77 0.59,1.64 0.57,2.5 0,0.43 -0.05,0.85 -0.13,1.27 -0.09,0.41 -0.2,0.82 -0.36,1.21 0.07,-0.41 0.15,-0.82 0.17,-1.24 0.04,-0.41 0.05,-0.82 0.03,-1.23 -0.06,-0.82 -0.26,-1.62 -0.63,-2.34 -0.36,-0.72 -0.87,-1.37 -1.48,-1.91 -0.31,-0.27 -0.65,-0.51 -1,-0.72 -0.35,-0.23 -0.73,-0.41 -1.12,-0.56z"/>
   <path class="fil6" d="M30.34 20.65c0.34,-0.83 0.74,-1.63 1.17,-2.42 0.44,-0.78 0.93,-1.54 1.44,-2.27 1.01,-1.48 2.16,-2.88 3.44,-4.14 1.3,-1.24 2.77,-2.37 4.46,-3.03 0.85,-0.33 1.75,-0.54 2.65,-0.56 0.91,-0.01 1.82,0.15 2.64,0.49 -1.71,-0.54 -3.57,-0.37 -5.17,0.34 -1.62,0.71 -3.05,1.8 -4.31,3.03 -1.29,1.23 -2.41,2.61 -3.47,4.04 -1.08,1.42 -2.02,2.93 -2.85,4.52z"/>
   <path class="fil6" d="M24.55 12.72c2.3,-2.17 4.96,-3.97 7.86,-5.26 2.91,-1.3 6.02,-2.06 9.13,-2.64 3.11,-0.58 6.23,-1.16 9.39,-1.48 1.58,-0.16 3.16,-0.28 4.75,-0.34l4.76 -0.06 0.17 0 0.1 0.16c1.82,2.89 3.6,5.81 5.26,8.8 1.68,2.99 3.22,6.04 4.71,9.12 0.73,1.55 1.44,3.13 1.91,4.82 0.24,0.84 0.4,1.7 0.49,2.57 0.08,0.87 0.1,1.74 0.09,2.6 -0.01,0.87 -0.07,1.73 -0.18,2.6 -0.05,0.43 -0.13,0.86 -0.22,1.28l-0.13 0.64c-0.05,0.21 -0.12,0.42 -0.17,0.63 -0.46,1.68 -1.16,3.29 -2.02,4.79 -1.72,3.02 -4.07,5.6 -6.61,7.91 -2.54,2.31 -5.31,4.34 -8.12,6.28 -2.82,1.95 -5.7,3.79 -8.52,5.7 -0.7,0.48 -1.4,0.96 -2.1,1.45 -0.7,0.49 -1.36,1.01 -2.1,1.48 -1.45,0.95 -3.17,1.5 -4.91,1.48l-0.03 0 -0.02 -0.01 -8.13 -4.55 8.24 4.34 -0.06 -0.01c1.69,-0.02 3.34,-0.59 4.73,-1.53 0.69,-0.47 1.36,-1.02 2.05,-1.52 0.69,-0.5 1.39,-1 2.09,-1.48 2.8,-1.96 5.65,-3.84 8.43,-5.81 2.78,-1.97 5.49,-4.03 8,-6.31 2.5,-2.29 4.78,-4.84 6.44,-7.77 0.83,-1.46 1.49,-3.01 1.93,-4.63 0.05,-0.2 0.11,-0.4 0.16,-0.61l0.12 -0.61c0.09,-0.41 0.16,-0.82 0.21,-1.24 0.1,-0.83 0.15,-1.67 0.16,-2.51 0.01,-0.84 -0.02,-1.68 -0.1,-2.51 -0.08,-0.82 -0.24,-1.65 -0.46,-2.45 -0.45,-1.61 -1.13,-3.16 -1.85,-4.7 -1.47,-3.07 -2.98,-6.12 -4.64,-9.1 -1.65,-2.98 -3.41,-5.89 -5.21,-8.79l0.27 0.15 -4.72 0c-1.57,0.04 -3.15,0.14 -4.72,0.28 -3.13,0.28 -6.25,0.81 -9.36,1.35 -3.11,0.56 -6.21,1.21 -9.11,2.44 -2.9,1.23 -5.59,2.96 -7.96,5.05z"/>
   <path class="fil6" d="M31.88 30.19c0.22,1.91 0.3,3.84 0.15,5.76 -0.07,0.97 -0.22,1.93 -0.47,2.87 -0.26,0.94 -0.63,1.86 -1.2,2.67 -0.29,0.4 -0.64,0.77 -1.03,1.07l-1.14 0.89c-0.75,0.59 -1.48,1.21 -2.21,1.82 -0.73,0.61 -1.43,1.3 -2.23,1.84 -0.38,0.28 -0.81,0.54 -0.94,0.99 -0.15,0.45 -0.09,0.95 0.08,1.39 -0.21,-0.43 -0.31,-0.93 -0.18,-1.42 0.06,-0.24 0.2,-0.46 0.38,-0.63 0.17,-0.18 0.36,-0.33 0.55,-0.48 0.77,-0.57 1.42,-1.26 2.14,-1.91 0.71,-0.66 1.45,-1.27 2.19,-1.88l1.13 -0.89c0.36,-0.3 0.67,-0.64 0.95,-1.01 0.54,-0.76 0.91,-1.64 1.17,-2.55 0.26,-0.91 0.4,-1.85 0.52,-2.8 0.11,-0.94 0.15,-1.9 0.17,-2.85 0.01,-0.48 0,-0.96 0.01,-1.44l-0.04 -1.44z"/>
   <path class="fil6" d="M17.03 74.64c0.24,-0.15 0.45,-0.34 0.59,-0.57 0.14,-0.23 0.22,-0.49 0.26,-0.77 0.04,0.28 -0.03,0.57 -0.18,0.82 -0.08,0.12 -0.17,0.23 -0.29,0.32 -0.11,0.09 -0.24,0.16 -0.38,0.2z"/>
   <path class="fil6" d="M18.21 74.28c-0.21,-0.33 -0.34,-0.7 -0.42,-1.08 -0.06,-0.39 -0.04,-0.79 0.03,-1.18 0.07,-0.38 0.19,-0.77 0.43,-1.11 0.13,-0.16 0.31,-0.32 0.55,-0.37 0.25,-0.04 0.48,0.07 0.64,0.19 0.34,0.26 0.57,0.58 0.77,0.93 0.19,0.36 0.27,0.75 0.35,1.12 0.12,0.77 0.24,1.53 0.29,2.29l-0.5 -2.23c-0.12,-0.37 -0.2,-0.74 -0.38,-1.05 -0.19,-0.31 -0.42,-0.62 -0.7,-0.82 -0.13,-0.1 -0.29,-0.17 -0.42,-0.15 -0.14,0.02 -0.27,0.13 -0.38,0.26 -0.21,0.28 -0.34,0.64 -0.44,0.99 -0.19,0.72 -0.13,1.5 0.18,2.21z"/>
   <path class="fil6" d="M25.09 24.33c0.25,0.44 0.47,0.9 0.65,1.37 0.17,0.48 0.3,0.98 0.35,1.5 0.04,0.51 -0.02,1.06 -0.27,1.56 -0.13,0.24 -0.31,0.46 -0.53,0.63 -0.22,0.17 -0.46,0.28 -0.7,0.39 -0.95,0.37 -1.89,0.68 -2.83,1.04 -0.47,0.18 -0.93,0.36 -1.4,0.56l-1.4 0.56c0.43,-0.26 0.88,-0.5 1.32,-0.74 0.45,-0.22 0.91,-0.44 1.37,-0.65 0.45,-0.21 0.92,-0.4 1.39,-0.59 0.47,-0.18 0.95,-0.35 1.4,-0.54 0.46,-0.18 0.84,-0.43 1.06,-0.84 0.23,-0.4 0.29,-0.88 0.29,-1.37 -0.03,-0.97 -0.35,-1.94 -0.7,-2.88z"/>
   <path class="fil6" d="M23.65 41.25c0.73,-0.32 1.47,-0.63 2.21,-0.91 0.74,-0.28 1.48,-0.57 2.21,-0.88 0.73,-0.3 1.45,-0.62 2.12,-1.02 0.67,-0.38 1.22,-0.96 1.6,-1.66 -0.23,0.76 -0.75,1.47 -1.43,1.92 -0.67,0.47 -1.41,0.8 -2.14,1.12 -0.74,0.3 -1.49,0.58 -2.26,0.8 -0.77,0.24 -1.54,0.45 -2.31,0.63z"/>
   <path class="fil6" d="M27.76 18.2c0,0.52 0.01,1.04 0.08,1.56 0.06,0.51 0.17,1.02 0.36,1.49 0.2,0.46 0.45,0.9 0.81,1.24 0.35,0.35 0.81,0.57 1.27,0.86 0.45,0.3 0.86,0.71 1.13,1.18 0.28,0.47 0.47,0.99 0.57,1.51 0.21,1.06 0.18,2.12 0.03,3.16 -0.01,-0.52 -0.02,-1.04 -0.07,-1.56 -0.04,-0.52 -0.12,-1.03 -0.25,-1.53 -0.26,-0.98 -0.77,-1.91 -1.63,-2.43 -0.42,-0.28 -0.91,-0.53 -1.31,-0.93 -0.38,-0.4 -0.66,-0.89 -0.83,-1.4 -0.34,-1.03 -0.32,-2.12 -0.16,-3.15z"/>
   <path class="fil6" d="M7.93 43.41c-0.64,-0.38 -1.28,-0.71 -1.98,-0.83 -0.34,-0.06 -0.69,-0.05 -1,0.08 -0.31,0.11 -0.55,0.4 -0.7,0.74 0.04,-0.36 0.23,-0.76 0.6,-0.95 0.35,-0.2 0.77,-0.21 1.15,-0.15 0.77,0.13 1.44,0.56 1.93,1.11z"/>
   <path class="fil6" d="M7.03 52.77c-0.66,-0.26 -1.31,-0.52 -1.97,-0.63 -0.33,-0.06 -0.67,-0.07 -0.99,-0.01 -0.32,0.07 -0.62,0.24 -0.84,0.52 0.12,-0.34 0.42,-0.62 0.78,-0.74 0.36,-0.12 0.74,-0.12 1.1,-0.05 0.72,0.13 1.37,0.46 1.92,0.91z"/>
   <path class="fil6" d="M6.94 62.19c-0.61,-0.2 -1.2,-0.4 -1.81,-0.47 -0.3,-0.05 -0.6,-0.05 -0.89,0.02 -0.28,0.06 -0.55,0.21 -0.74,0.48 0.08,-0.31 0.35,-0.59 0.68,-0.7 0.32,-0.13 0.66,-0.13 0.99,-0.09 0.66,0.09 1.26,0.36 1.77,0.76z"/>
   <path class="fil6" d="M8.42 70.6c-0.62,-0.02 -1.22,-0.05 -1.8,0.06 -0.28,0.06 -0.56,0.15 -0.78,0.32 -0.22,0.15 -0.36,0.42 -0.38,0.74 -0.04,-0.15 -0.05,-0.32 -0.02,-0.48 0.04,-0.16 0.13,-0.32 0.25,-0.43 0.24,-0.25 0.57,-0.37 0.88,-0.43 0.63,-0.12 1.28,-0.03 1.85,0.22z"/>
   <path class="fil6" d="M11.71 77.91c-0.26,0.03 -0.5,0.08 -0.74,0.14 -0.23,0.07 -0.45,0.16 -0.64,0.29 -0.19,0.12 -0.35,0.28 -0.41,0.48 -0.05,0.2 0.01,0.45 0.11,0.69 -0.19,-0.17 -0.36,-0.42 -0.33,-0.72 0.03,-0.31 0.24,-0.55 0.47,-0.7 0.47,-0.29 1.05,-0.34 1.54,-0.18z"/>
   <path class="fil6" d="M33.79 47.8c1.03,0.18 2.07,0.31 3.11,0.31 1.04,0 2.09,-0.11 3.05,-0.47 0.96,-0.35 1.83,-0.93 2.47,-1.73 0.64,-0.79 1.05,-1.75 1.35,-2.73 0.32,-0.99 0.54,-2.01 0.85,-3.03 0.15,-0.5 0.33,-1.01 0.58,-1.49 0.24,-0.48 0.57,-0.93 1.01,-1.27 0.42,-0.35 0.94,-0.57 1.47,-0.67 0.54,-0.1 1.08,-0.08 1.61,0.01 1.04,0.2 2.02,0.64 2.92,1.17 -0.94,-0.45 -1.93,-0.85 -2.95,-0.98 -1.02,-0.15 -2.1,0.03 -2.86,0.7 -0.77,0.66 -1.16,1.65 -1.44,2.63 -0.3,1 -0.5,2.03 -0.82,3.04 -0.32,1.01 -0.76,2.01 -1.45,2.85 -0.69,0.83 -1.62,1.46 -2.64,1.78 -1.02,0.34 -2.1,0.42 -3.15,0.37 -1.06,-0.05 -2.1,-0.23 -3.11,-0.49z"/>
   <path class="fil6" d="M48.58 19.35c0.69,0.59 1.38,1.17 2.12,1.68 0.74,0.52 1.5,1 2.31,1.39 0.81,0.39 1.64,0.73 2.5,0.98 0.86,0.24 1.74,0.39 2.63,0.47 0.89,0.11 1.81,0.13 2.72,0.35 0.91,0.21 1.77,0.74 2.32,1.5 0.56,0.76 0.86,1.66 0.99,2.57 0.13,0.9 0.12,1.82 0.02,2.72 0.01,-0.91 -0.02,-1.81 -0.2,-2.69 -0.17,-0.88 -0.5,-1.73 -1.05,-2.41 -0.27,-0.34 -0.6,-0.63 -0.96,-0.86 -0.37,-0.23 -0.78,-0.39 -1.21,-0.49 -0.85,-0.19 -1.76,-0.21 -2.67,-0.3 -1.81,-0.18 -3.62,-0.7 -5.23,-1.58 -1.61,-0.86 -3.04,-2.02 -4.29,-3.33z"/>
   <path class="fil6" d="M33.17 54.72c-0.06,0.77 -0.07,1.55 0.14,2.25 0.2,0.72 0.7,1.27 1.4,1.54 0.33,0.16 0.71,0.29 1.06,0.52 0.34,0.23 0.63,0.53 0.83,0.89 0.42,0.71 0.48,1.54 0.37,2.3 -0.04,-0.77 -0.21,-1.54 -0.62,-2.14 -0.21,-0.3 -0.47,-0.56 -0.78,-0.74 -0.31,-0.19 -0.66,-0.32 -1.02,-0.47 -0.36,-0.17 -0.73,-0.4 -1,-0.72 -0.27,-0.32 -0.45,-0.71 -0.53,-1.1 -0.18,-0.79 -0.05,-1.59 0.15,-2.33z"/>
   <path class="fil6" d="M67.47 27.29c-0.13,-0.42 -0.28,-0.82 -0.49,-1.19 -0.2,-0.37 -0.44,-0.72 -0.72,-1.04 -0.55,-0.62 -1.25,-1.1 -2.03,-1.38 -0.78,-0.29 -1.63,-0.37 -2.47,-0.31 -0.84,0.06 -1.66,0.3 -2.46,0.64 0.36,-0.24 0.75,-0.44 1.16,-0.61 0.41,-0.15 0.83,-0.26 1.27,-0.33 0.44,-0.07 0.88,-0.07 1.33,-0.04 0.44,0.04 0.88,0.14 1.3,0.29 0.84,0.3 1.6,0.84 2.13,1.56 0.55,0.7 0.88,1.55 0.98,2.41z"/>
   <path class="fil6" d="M38.37 62.71c0.21,-0.58 0.36,-1.2 0.24,-1.75 -0.07,-0.27 -0.2,-0.52 -0.41,-0.69 -0.21,-0.17 -0.48,-0.29 -0.76,-0.41 -0.28,-0.13 -0.57,-0.23 -0.85,-0.35 -0.29,-0.11 -0.57,-0.23 -0.86,-0.35 -0.56,-0.24 -1.12,-0.51 -1.68,-0.79 0.61,0.14 1.2,0.31 1.79,0.51 0.59,0.19 1.18,0.38 1.75,0.63 0.29,0.13 0.59,0.25 0.85,0.49 0.26,0.24 0.42,0.57 0.46,0.91 0.08,0.67 -0.19,1.29 -0.53,1.8z"/>
   <path class="fil6" d="M17.68 34.81c-1.01,2.53 -1.69,5.18 -2,7.86l-0.39 -0.05c0.45,-2.7 1.26,-5.33 2.39,-7.81z"/>
   <path class="fil0" d="M74.37 79.85l0 -29.96 18.92 0 0 4.44 -14.28 0 0 21.07 14.28 0 0 4.45 -18.92 0zm2.11 -13.14l0 -4.45 14.45 0 0 4.45 -14.45 0zm31.44 13.57c-1.88,0 -3.58,-0.33 -5.1,-0.99 -1.52,-0.65 -2.77,-1.62 -3.78,-2.91l3.01 -2.56c0.86,1 1.8,1.71 2.81,2.15 1.01,0.45 2.16,0.67 3.45,0.67 0.52,0 1,-0.06 1.45,-0.2 0.44,-0.12 0.83,-0.31 1.15,-0.57 0.33,-0.25 0.58,-0.57 0.75,-0.92 0.17,-0.35 0.25,-0.75 0.25,-1.18 0,-0.74 -0.27,-1.34 -0.81,-1.79 -0.28,-0.21 -0.73,-0.43 -1.35,-0.67 -0.62,-0.24 -1.42,-0.5 -2.38,-0.75 -1.66,-0.43 -3.01,-0.91 -4.07,-1.46 -1.06,-0.55 -1.89,-1.15 -2.46,-1.83 -0.42,-0.55 -0.74,-1.14 -0.93,-1.79 -0.21,-0.64 -0.31,-1.34 -0.31,-2.11 0,-0.94 0.21,-1.81 0.62,-2.6 0.41,-0.78 0.99,-1.46 1.72,-2.05 0.73,-0.58 1.59,-1.03 2.58,-1.34 0.98,-0.32 2.04,-0.48 3.15,-0.48 1.05,0 2.11,0.15 3.16,0.43 1.03,0.29 2.01,0.7 2.89,1.25 0.89,0.54 1.63,1.18 2.23,1.92l-2.53 2.79c-0.55,-0.55 -1.13,-1.02 -1.78,-1.45 -0.64,-0.41 -1.3,-0.72 -1.96,-0.96 -0.65,-0.23 -1.25,-0.34 -1.8,-0.34 -0.59,0 -1.14,0.07 -1.63,0.17 -0.48,0.11 -0.88,0.28 -1.21,0.51 -0.33,0.24 -0.59,0.53 -0.76,0.87 -0.18,0.34 -0.26,0.72 -0.26,1.15 0.03,0.38 0.13,0.71 0.29,1.04 0.16,0.33 0.38,0.61 0.66,0.84 0.31,0.23 0.79,0.47 1.42,0.73 0.62,0.25 1.42,0.49 2.39,0.73 1.43,0.37 2.61,0.77 3.54,1.22 0.94,0.45 1.67,0.95 2.22,1.52 0.57,0.54 0.97,1.16 1.2,1.88 0.23,0.72 0.34,1.52 0.34,2.4 0,1.29 -0.36,2.44 -1.09,3.45 -0.73,1.01 -1.72,1.79 -2.95,2.37 -1.22,0.57 -2.6,0.86 -4.12,0.86zm16.66 -0.43l0 -28.21 4.42 0 0 28.21 -4.42 0zm-4.68 -18.19l0 -4.28 14.33 0 0 4.28 -14.33 0zm27.08 18.62c-1.59,0 -2.99,-0.38 -4.17,-1.12 -1.19,-0.74 -2.1,-1.77 -2.75,-3.12 -0.64,-1.35 -0.97,-2.94 -0.97,-4.79l0 -13.87 4.41 0 0 12.67c0,1.31 0.21,2.44 0.64,3.39 0.41,0.96 1.01,1.7 1.8,2.21 0.79,0.53 1.74,0.78 2.84,0.78 0.84,0 1.6,-0.13 2.29,-0.41 0.68,-0.27 1.28,-0.65 1.78,-1.13 0.49,-0.49 0.88,-1.07 1.18,-1.76 0.28,-0.69 0.42,-1.43 0.42,-2.22l0 -13.53 4.42 0 0 22.47 -4.42 0 0 -4.71 0.77 -0.51c-0.34,1.06 -0.91,2.01 -1.73,2.87 -0.81,0.86 -1.79,1.53 -2.89,2.02 -1.12,0.5 -2.33,0.76 -3.62,0.76zm-0.98 -26.37l-1.46 -2.19 6.14 -5.35 2.79 3.52 -7.47 4.02zm29.27 26.37c-2.06,0 -3.9,-0.51 -5.51,-1.52 -1.62,-1.01 -2.91,-2.39 -3.85,-4.15 -0.95,-1.76 -1.42,-3.76 -1.42,-6.02 0,-2.26 0.46,-4.26 1.4,-6.02 0.92,-1.75 2.19,-3.13 3.79,-4.15 1.61,-1.01 3.42,-1.52 5.45,-1.52 1.12,0 2.2,0.19 3.25,0.54 1.03,0.35 1.97,0.84 2.81,1.45 0.83,0.62 1.47,1.29 1.94,2.02 0.48,0.73 0.71,1.47 0.71,2.21l-1.29 0.08 0 -15.03 4.43 0 0 31.68 -4.43 0 0 -5.35 0.86 0c0,0.69 -0.23,1.36 -0.68,2.03 -0.46,0.66 -1.07,1.3 -1.82,1.87 -0.77,0.57 -1.63,1.03 -2.62,1.37 -0.98,0.34 -1.99,0.51 -3.02,0.51zm0.59 -3.81c1.35,0 2.53,-0.34 3.57,-1.04 1.03,-0.67 1.83,-1.61 2.42,-2.8 0.58,-1.18 0.87,-2.52 0.87,-4.04 0,-1.52 -0.29,-2.86 -0.87,-4.05 -0.59,-1.18 -1.39,-2.11 -2.42,-2.81 -1.04,-0.68 -2.22,-1.02 -3.57,-1.02 -1.35,0 -2.53,0.34 -3.56,1.02 -1.04,0.7 -1.84,1.63 -2.42,2.81 -0.59,1.19 -0.88,2.53 -0.88,4.05 0,1.52 0.29,2.86 0.88,4.04 0.58,1.19 1.38,2.13 2.42,2.8 1.03,0.7 2.21,1.04 3.56,1.04zm18.76 3.38l0 -22.47 4.41 0 0 22.47 -4.41 0zm2.14 -27.44c-0.94,0 -1.67,-0.24 -2.18,-0.72 -0.52,-0.49 -0.77,-1.18 -0.77,-2.07 0,-0.82 0.26,-1.49 0.79,-2.01 0.52,-0.51 1.25,-0.77 2.16,-0.77 0.95,0 1.68,0.25 2.2,0.73 0.51,0.49 0.77,1.17 0.77,2.05 0,0.84 -0.27,1.51 -0.79,2.02 -0.54,0.52 -1.27,0.77 -2.18,0.77zm20.01 27.87c-2.2,0 -4.17,-0.51 -5.9,-1.52 -1.74,-1.01 -3.1,-2.39 -4.1,-4.15 -1.01,-1.76 -1.5,-3.76 -1.5,-6.02 0,-2.26 0.49,-4.26 1.5,-6.02 1,-1.75 2.36,-3.13 4.1,-4.15 1.73,-1.01 3.7,-1.52 5.9,-1.52 2.18,0 4.12,0.51 5.86,1.52 1.73,1.02 3.09,2.4 4.09,4.15 1,1.76 1.5,3.76 1.5,6.02 0,2.26 -0.5,4.26 -1.5,6.02 -1,1.76 -2.36,3.14 -4.09,4.15 -1.74,1.01 -3.68,1.52 -5.86,1.52zm0 -4.02c1.34,0 2.54,-0.34 3.6,-1.01 1.06,-0.66 1.89,-1.59 2.5,-2.74 0.59,-1.15 0.88,-2.46 0.85,-3.92 0.03,-1.48 -0.26,-2.8 -0.85,-3.96 -0.61,-1.15 -1.44,-2.06 -2.5,-2.71 -1.06,-0.66 -2.26,-0.99 -3.6,-0.99 -1.35,0 -2.55,0.34 -3.62,1.01 -1.09,0.67 -1.92,1.58 -2.52,2.73 -0.6,1.15 -0.89,2.46 -0.85,3.92 -0.04,1.46 0.25,2.77 0.85,3.92 0.6,1.15 1.43,2.08 2.52,2.74 1.07,0.67 2.27,1.01 3.62,1.01zm39.32 4.02c-2.06,0 -3.89,-0.51 -5.51,-1.52 -1.62,-1.01 -2.91,-2.39 -3.84,-4.15 -0.95,-1.76 -1.43,-3.76 -1.43,-6.02 0,-2.26 0.46,-4.26 1.4,-6.02 0.93,-1.75 2.19,-3.13 3.8,-4.15 1.6,-1.01 3.41,-1.52 5.44,-1.52 1.12,0 2.21,0.19 3.25,0.54 1.04,0.35 1.97,0.84 2.81,1.45 0.83,0.62 1.47,1.29 1.95,2.02 0.47,0.73 0.7,1.47 0.7,2.21l-1.29 0.08 0 -15.03 4.43 0 0 31.68 -4.43 0 0 -5.35 0.87 0c0,0.69 -0.23,1.36 -0.68,2.03 -0.47,0.66 -1.07,1.3 -1.83,1.87 -0.76,0.57 -1.63,1.03 -2.61,1.37 -0.99,0.34 -2,0.51 -3.03,0.51zm0.59 -3.81c1.35,0 2.53,-0.34 3.57,-1.04 1.03,-0.67 1.84,-1.61 2.42,-2.8 0.58,-1.18 0.87,-2.52 0.87,-4.04 0,-1.52 -0.29,-2.86 -0.87,-4.05 -0.58,-1.18 -1.39,-2.11 -2.42,-2.81 -1.04,-0.68 -2.22,-1.02 -3.57,-1.02 -1.35,0 -2.53,0.34 -3.56,1.02 -1.03,0.7 -1.84,1.63 -2.42,2.81 -0.58,1.19 -0.88,2.53 -0.88,4.05 0,1.52 0.3,2.86 0.88,4.04 0.58,1.19 1.39,2.13 2.42,2.8 1.03,0.7 2.21,1.04 3.56,1.04zm28.54 3.81c-2.31,0 -4.35,-0.5 -6.14,-1.48 -1.79,-0.99 -3.2,-2.33 -4.21,-4.04 -1.02,-1.72 -1.53,-3.68 -1.53,-5.91 0,-1.76 0.29,-3.38 0.86,-4.83 0.57,-1.46 1.36,-2.72 2.39,-3.8 1.01,-1.07 2.22,-1.9 3.65,-2.48 1.41,-0.58 2.94,-0.87 4.61,-0.87 1.44,0 2.81,0.28 4.07,0.82 1.25,0.56 2.35,1.33 3.28,2.3 0.93,0.97 1.65,2.12 2.15,3.44 0.49,1.33 0.74,2.78 0.7,4.35l-0.04 1.88 -18.41 0 -0.99 -3.51 15.59 0 -0.65 0.73 0 -1.03c-0.08,-0.94 -0.4,-1.79 -0.95,-2.53 -0.55,-0.74 -1.23,-1.32 -2.05,-1.74 -0.83,-0.43 -1.73,-0.65 -2.7,-0.65 -1.55,0 -2.85,0.29 -3.91,0.88 -1.06,0.58 -1.86,1.43 -2.41,2.56 -0.54,1.13 -0.81,2.52 -0.81,4.18 0,1.57 0.33,2.93 0.98,4.08 0.66,1.15 1.6,2.05 2.8,2.68 1.2,0.64 2.59,0.95 4.16,0.95 1.11,0 2.15,-0.18 3.11,-0.56 0.97,-0.37 2,-1.04 3.11,-2.01l2.23 3.13c-0.69,0.68 -1.53,1.27 -2.51,1.78 -0.99,0.52 -2.03,0.92 -3.13,1.23 -1.11,0.3 -2.19,0.45 -3.25,0.45zm42.84 0c-2.18,0 -4.21,-0.39 -6.1,-1.18 -1.88,-0.79 -3.55,-1.88 -4.97,-3.28 -1.44,-1.39 -2.55,-3.02 -3.34,-4.9 -0.79,-1.87 -1.18,-3.88 -1.18,-6.05 0,-2.14 0.39,-4.14 1.18,-6 0.79,-1.86 1.89,-3.47 3.31,-4.85 1.43,-1.39 3.08,-2.47 4.96,-3.24 1.89,-0.77 3.91,-1.16 6.09,-1.16 1.52,0 3,0.22 4.45,0.65 1.45,0.42 2.75,1.03 3.93,1.79 1.16,0.78 2.13,1.66 2.87,2.66l-3.01 3.13c-0.86,-0.84 -1.74,-1.52 -2.64,-2.06 -0.9,-0.55 -1.82,-0.96 -2.76,-1.24 -0.95,-0.28 -1.89,-0.42 -2.84,-0.42 -1.55,0 -2.96,0.26 -4.26,0.81 -1.3,0.54 -2.46,1.3 -3.44,2.27 -0.99,0.97 -1.75,2.1 -2.3,3.4 -0.55,1.29 -0.82,2.71 -0.82,4.26 0,1.49 0.29,2.9 0.87,4.22 0.57,1.32 1.37,2.49 2.38,3.48 1.01,1.01 2.19,1.79 3.52,2.36 1.32,0.57 2.73,0.86 4.23,0.86 1.11,0 2.16,-0.17 3.17,-0.5 1,-0.33 1.89,-0.79 2.67,-1.38 0.76,-0.6 1.37,-1.29 1.8,-2.08 0.42,-0.79 0.63,-1.63 0.63,-2.51l0 -0.85 0.64 0.59 -9.18 0 0 -4.57 13.31 0c0.06,0.3 0.09,0.61 0.13,0.91 0.03,0.3 0.05,0.58 0.06,0.85 0.01,0.28 0.03,0.54 0.03,0.8 0,1.98 -0.34,3.76 -1.04,5.38 -0.69,1.61 -1.64,2.99 -2.86,4.17 -1.21,1.18 -2.62,2.07 -4.24,2.72 -1.62,0.64 -3.37,0.96 -5.25,0.96zm27.8 0c-1.86,0 -3.56,-0.51 -5.08,-1.54 -1.53,-1.04 -2.76,-2.43 -3.67,-4.2 -0.92,-1.76 -1.38,-3.76 -1.38,-5.99 0,-2.25 0.46,-4.26 1.4,-6.02 0.92,-1.76 2.18,-3.13 3.77,-4.13 1.59,-1 3.37,-1.5 5.34,-1.5 1.18,0 2.25,0.17 3.22,0.51 0.98,0.36 1.83,0.83 2.56,1.44 0.73,0.62 1.32,1.32 1.8,2.12 0.47,0.8 0.76,1.66 0.87,2.57l-0.98 -0.34 0 -5.82 4.46 0 0 22.47 -4.46 0 0 -5.35 1.03 -0.3c-0.17,0.77 -0.52,1.53 -1.04,2.24 -0.54,0.73 -1.21,1.39 -2.02,1.96 -0.82,0.57 -1.72,1.03 -2.7,1.37 -0.99,0.34 -2.03,0.51 -3.12,0.51zm1.16 -4.07c1.35,0 2.53,-0.33 3.56,-0.98 1.04,-0.66 1.84,-1.57 2.42,-2.72 0.59,-1.15 0.88,-2.48 0.88,-3.96 0,-1.45 -0.29,-2.75 -0.88,-3.89 -0.58,-1.14 -1.38,-2.04 -2.42,-2.71 -1.03,-0.65 -2.21,-0.98 -3.56,-0.98 -1.32,0 -2.48,0.33 -3.49,0.98 -1.02,0.67 -1.83,1.57 -2.41,2.71 -0.6,1.14 -0.89,2.44 -0.89,3.89 0,1.48 0.29,2.81 0.89,3.96 0.58,1.15 1.39,2.06 2.41,2.72 1.01,0.65 2.17,0.98 3.49,0.98zm18.06 3.64l0 -22.47 4.47 0 0 4.79 -0.82 0.51c0.23,-0.74 0.6,-1.44 1.1,-2.14 0.5,-0.69 1.12,-1.29 1.85,-1.82 0.71,-0.52 1.5,-0.94 2.36,-1.26 0.84,-0.31 1.7,-0.47 2.59,-0.47 1.29,0 2.42,0.22 3.39,0.64 0.97,0.43 1.78,1.07 2.41,1.93 0.62,0.86 1.08,1.93 1.36,3.21l-0.68 -0.17 0.29 -0.73c0.32,-0.66 0.76,-1.28 1.32,-1.86 0.56,-0.58 1.19,-1.1 1.91,-1.56 0.71,-0.45 1.47,-0.82 2.27,-1.07 0.8,-0.26 1.59,-0.39 2.36,-0.39 1.69,0 3.08,0.34 4.18,1.02 1.11,0.69 1.94,1.73 2.5,3.13 0.54,1.39 0.82,3.14 0.82,5.23l0 13.48 -4.46 0 0 -13.23c0,-1.28 -0.16,-2.34 -0.49,-3.15 -0.32,-0.81 -0.82,-1.42 -1.48,-1.82 -0.66,-0.4 -1.5,-0.6 -2.53,-0.6 -0.8,0 -1.56,0.14 -2.25,0.41 -0.71,0.27 -1.31,0.65 -1.82,1.14 -0.53,0.48 -0.93,1.04 -1.21,1.68 -0.28,0.65 -0.42,1.36 -0.42,2.13l0 13.44 -4.47 0 0 -13.31c0,-1.18 -0.17,-2.17 -0.51,-2.99 -0.35,-0.81 -0.85,-1.43 -1.51,-1.85 -0.65,-0.43 -1.46,-0.65 -2.39,-0.65 -0.81,0 -1.55,0.14 -2.24,0.41 -0.7,0.27 -1.29,0.64 -1.8,1.11 -0.53,0.47 -0.93,1.03 -1.21,1.68 -0.28,0.64 -0.42,1.33 -0.42,2.07l0 13.53 -4.47 0zm50.93 0.43c-2.31,0 -4.35,-0.5 -6.14,-1.48 -1.79,-0.99 -3.2,-2.33 -4.21,-4.04 -1.02,-1.72 -1.53,-3.68 -1.53,-5.91 0,-1.76 0.29,-3.38 0.86,-4.83 0.58,-1.46 1.37,-2.72 2.39,-3.8 1.01,-1.07 2.23,-1.9 3.65,-2.48 1.41,-0.58 2.94,-0.87 4.61,-0.87 1.44,0 2.81,0.28 4.07,0.82 1.25,0.56 2.35,1.33 3.29,2.3 0.92,0.97 1.64,2.12 2.14,3.44 0.5,1.33 0.74,2.78 0.7,4.35l-0.03 1.88 -18.42 0 -0.98 -3.51 15.58 0 -0.65 0.73 0 -1.03c-0.08,-0.94 -0.4,-1.79 -0.95,-2.53 -0.54,-0.74 -1.23,-1.32 -2.05,-1.74 -0.83,-0.43 -1.73,-0.65 -2.7,-0.65 -1.55,0 -2.85,0.29 -3.91,0.88 -1.05,0.58 -1.86,1.43 -2.4,2.56 -0.55,1.13 -0.82,2.52 -0.82,4.18 0,1.57 0.33,2.93 0.99,4.08 0.65,1.15 1.59,2.05 2.79,2.68 1.21,0.64 2.59,0.95 4.16,0.95 1.11,0 2.16,-0.18 3.12,-0.56 0.96,-0.37 1.99,-1.04 3.1,-2.01l2.24 3.13c-0.7,0.68 -1.54,1.27 -2.52,1.78 -0.99,0.52 -2.03,0.92 -3.13,1.23 -1.1,0.3 -2.19,0.45 -3.25,0.45zm22.96 0c-1.89,0 -3.58,-0.33 -5.1,-0.99 -1.52,-0.65 -2.77,-1.62 -3.78,-2.91l3 -2.56c0.87,1 1.8,1.71 2.81,2.15 1.01,0.45 2.17,0.67 3.46,0.67 0.52,0 1,-0.06 1.45,-0.2 0.43,-0.12 0.82,-0.31 1.15,-0.57 0.33,-0.25 0.57,-0.57 0.74,-0.92 0.17,-0.35 0.26,-0.75 0.26,-1.18 0,-0.74 -0.27,-1.34 -0.82,-1.79 -0.28,-0.21 -0.73,-0.43 -1.35,-0.67 -0.62,-0.24 -1.41,-0.5 -2.37,-0.75 -1.66,-0.43 -3.01,-0.91 -4.07,-1.46 -1.06,-0.55 -1.89,-1.15 -2.46,-1.83 -0.43,-0.55 -0.74,-1.14 -0.94,-1.79 -0.2,-0.64 -0.3,-1.34 -0.3,-2.11 0,-0.94 0.21,-1.81 0.62,-2.6 0.41,-0.78 0.99,-1.46 1.72,-2.05 0.72,-0.58 1.59,-1.03 2.57,-1.34 0.99,-0.32 2.05,-0.48 3.15,-0.48 1.06,0 2.12,0.15 3.17,0.43 1.03,0.29 2,0.7 2.89,1.25 0.89,0.54 1.63,1.18 2.23,1.92l-2.53 2.79c-0.55,-0.55 -1.13,-1.02 -1.78,-1.45 -0.64,-0.41 -1.3,-0.72 -1.96,-0.96 -0.65,-0.23 -1.25,-0.34 -1.8,-0.34 -0.59,0 -1.14,0.07 -1.63,0.17 -0.48,0.11 -0.89,0.28 -1.21,0.51 -0.33,0.24 -0.59,0.53 -0.76,0.87 -0.18,0.34 -0.27,0.72 -0.27,1.15 0.04,0.38 0.14,0.71 0.3,1.04 0.15,0.33 0.37,0.61 0.65,0.84 0.32,0.23 0.79,0.47 1.43,0.73 0.62,0.25 1.42,0.49 2.39,0.73 1.43,0.37 2.61,0.77 3.54,1.22 0.94,0.45 1.67,0.95 2.22,1.52 0.57,0.54 0.97,1.16 1.2,1.88 0.23,0.72 0.34,1.52 0.34,2.4 0,1.29 -0.36,2.44 -1.09,3.45 -0.73,1.01 -1.72,1.79 -2.95,2.37 -1.23,0.57 -2.6,0.86 -4.12,0.86z"/>
   <path class="fil0" d="M74.92 5.79l17.22 0 0 7.19 -4.25 0 0 25.3 8.74 0c0.24,0 0.47,-0.06 0.7,-0.2 0.21,-0.13 0.41,-0.3 0.58,-0.51 0.17,-0.2 0.3,-0.43 0.4,-0.67 0.11,-0.24 0.16,-0.49 0.16,-0.71l0 -5.31 8.59 0 0 14.57 -32.14 0 0 -7.17 4.16 0 0 -25.3 -4.16 0 0 -7.19zm56.32 40.37c-1.82,0 -3.56,-0.24 -5.22,-0.74 -1.66,-0.49 -3.22,-1.17 -4.65,-2.07 -1.45,-0.89 -2.76,-1.95 -3.93,-3.2 -1.18,-1.25 -2.18,-2.63 -3.01,-4.16 -0.83,-1.52 -1.48,-3.16 -1.93,-4.91 -0.46,-1.74 -0.69,-3.57 -0.69,-5.47 0,-1.89 0.23,-3.72 0.69,-5.48 0.45,-1.74 1.1,-3.39 1.93,-4.92 0.83,-1.52 1.83,-2.9 3.01,-4.15 1.17,-1.24 2.48,-2.3 3.93,-3.2 1.43,-0.9 2.99,-1.58 4.65,-2.08 1.66,-0.49 3.4,-0.73 5.22,-0.73 1.83,0 3.57,0.24 5.25,0.73 1.67,0.5 3.22,1.18 4.67,2.08 1.43,0.9 2.74,1.96 3.93,3.2 1.16,1.25 2.17,2.63 3.01,4.15 0.85,1.53 1.5,3.18 1.96,4.92 0.45,1.76 0.68,3.59 0.68,5.48 0,1.89 -0.23,3.71 -0.68,5.46 -0.46,1.76 -1.11,3.4 -1.96,4.92 -0.84,1.53 -1.85,2.91 -3.01,4.16 -1.19,1.25 -2.5,2.31 -3.93,3.2 -1.45,0.9 -3,1.58 -4.67,2.07 -1.68,0.5 -3.42,0.74 -5.25,0.74zm0 -8.21c1.54,0 2.96,-0.34 4.24,-0.99 1.27,-0.65 2.38,-1.55 3.31,-2.67 0.91,-1.13 1.61,-2.43 2.12,-3.92 0.51,-1.49 0.76,-3.07 0.76,-4.76 0,-1.68 -0.26,-3.28 -0.77,-4.78 -0.51,-1.5 -1.24,-2.81 -2.16,-3.93 -0.92,-1.13 -2.02,-2.02 -3.29,-2.68 -1.28,-0.65 -2.68,-0.97 -4.21,-0.97 -1.52,0 -2.91,0.32 -4.19,0.97 -1.28,0.66 -2.37,1.55 -3.28,2.68 -0.92,1.12 -1.64,2.43 -2.17,3.93 -0.52,1.5 -0.78,3.1 -0.78,4.78 0,1.69 0.26,3.27 0.78,4.76 0.53,1.49 1.25,2.79 2.17,3.92 0.91,1.12 2,2.02 3.28,2.67 1.28,0.65 2.67,0.99 4.19,0.99zm46.97 -32.16l17.07 0 0 7.19 -1.39 0 -12.18 12.74 12.15 12.56 1.31 0 0 7.17 -17.06 0 0 -7.17 4.06 0 -6.2 -6.48 -6.19 6.48 3.6 0 0 7.17 -17.05 0 0 -7.17 1.83 0 11.99 -12.56 -12.28 -12.74 -1.43 0 0 -7.19 17.05 0 0 7.19 -4.05 0 6.46 6.73 6.42 -6.73 -4.11 0 0 -7.19zm42.68 40.37c-1.82,0 -3.56,-0.24 -5.22,-0.74 -1.66,-0.49 -3.22,-1.17 -4.65,-2.07 -1.45,-0.89 -2.76,-1.95 -3.93,-3.2 -1.18,-1.25 -2.18,-2.63 -3.02,-4.16 -0.83,-1.52 -1.47,-3.16 -1.92,-4.91 -0.46,-1.74 -0.69,-3.57 -0.69,-5.47 0,-1.89 0.23,-3.72 0.69,-5.48 0.45,-1.74 1.09,-3.39 1.92,-4.92 0.84,-1.52 1.84,-2.9 3.02,-4.15 1.17,-1.24 2.48,-2.3 3.93,-3.2 1.43,-0.9 2.99,-1.58 4.65,-2.08 1.66,-0.49 3.4,-0.73 5.22,-0.73 1.83,0 3.57,0.24 5.25,0.73 1.66,0.5 3.22,1.18 4.67,2.08 1.43,0.9 2.74,1.96 3.92,3.2 1.17,1.25 2.17,2.63 3.02,4.15 0.85,1.53 1.49,3.18 1.96,4.92 0.44,1.76 0.67,3.59 0.67,5.48 0,1.89 -0.23,3.71 -0.67,5.46 -0.47,1.76 -1.11,3.4 -1.96,4.92 -0.85,1.53 -1.85,2.91 -3.02,4.16 -1.18,1.25 -2.49,2.31 -3.92,3.2 -1.45,0.9 -3.01,1.58 -4.67,2.07 -1.68,0.5 -3.42,0.74 -5.25,0.74zm0 -8.21c1.54,0 2.96,-0.34 4.23,-0.99 1.28,-0.65 2.39,-1.55 3.32,-2.67 0.9,-1.13 1.61,-2.43 2.12,-3.92 0.51,-1.49 0.75,-3.07 0.75,-4.76 0,-1.68 -0.26,-3.28 -0.77,-4.78 -0.5,-1.5 -1.23,-2.81 -2.15,-3.93 -0.92,-1.13 -2.02,-2.02 -3.3,-2.68 -1.27,-0.65 -2.68,-0.97 -4.2,-0.97 -1.52,0 -2.91,0.32 -4.19,0.97 -1.28,0.66 -2.37,1.55 -3.28,2.68 -0.92,1.12 -1.65,2.43 -2.17,3.93 -0.52,1.5 -0.79,3.1 -0.79,4.78 0,1.69 0.27,3.27 0.79,4.76 0.52,1.49 1.25,2.79 2.17,3.92 0.91,1.12 2,2.02 3.28,2.67 1.28,0.65 2.67,0.99 4.19,0.99zm26.38 -32.16l15.45 0c1.83,0 3.6,0.23 5.3,0.7 1.67,0.47 3.25,1.14 4.71,1.99 1.46,0.85 2.79,1.87 3.99,3.07 1.18,1.2 2.21,2.52 3.06,3.99 0.85,1.48 1.49,3.06 1.96,4.74 0.46,1.69 0.69,3.45 0.69,5.29 0,1.84 -0.23,3.6 -0.69,5.29 -0.47,1.68 -1.11,3.26 -1.96,4.73 -0.85,1.48 -1.88,2.83 -3.06,4.03 -1.2,1.21 -2.53,2.25 -3.99,3.11 -1.46,0.87 -3.04,1.54 -4.71,2.01 -1.7,0.47 -3.47,0.71 -5.3,0.71l-15.45 0 0 -7.17 3.22 0 0 -25.3 -3.22 0 0 -7.19zm12.03 7.19l0 25.3 3.36 0c1.43,0 2.78,-0.33 4.06,-1 1.28,-0.65 2.37,-1.56 3.31,-2.7 0.94,-1.14 1.68,-2.5 2.24,-4.03 0.53,-1.53 0.81,-3.2 0.81,-4.98 0,-1.76 -0.28,-3.42 -0.81,-4.95 -0.56,-1.54 -1.3,-2.86 -2.24,-4 -0.94,-1.14 -2.03,-2.02 -3.31,-2.67 -1.28,-0.65 -2.63,-0.97 -4.06,-0.97l-3.36 0zm48.36 33.18c-1.82,0 -3.56,-0.24 -5.22,-0.74 -1.66,-0.49 -3.22,-1.17 -4.65,-2.07 -1.45,-0.89 -2.76,-1.95 -3.93,-3.2 -1.18,-1.25 -2.19,-2.63 -3.02,-4.16 -0.83,-1.52 -1.48,-3.16 -1.92,-4.91 -0.46,-1.74 -0.7,-3.57 -0.7,-5.47 0,-1.89 0.24,-3.72 0.7,-5.48 0.44,-1.74 1.09,-3.39 1.92,-4.92 0.83,-1.52 1.84,-2.9 3.02,-4.15 1.17,-1.24 2.48,-2.3 3.93,-3.2 1.43,-0.9 2.99,-1.58 4.65,-2.08 1.66,-0.49 3.4,-0.73 5.22,-0.73 1.83,0 3.57,0.24 5.25,0.73 1.66,0.5 3.22,1.18 4.67,2.08 1.43,0.9 2.74,1.96 3.92,3.2 1.17,1.25 2.17,2.63 3.02,4.15 0.85,1.53 1.49,3.18 1.95,4.92 0.45,1.76 0.68,3.59 0.68,5.48 0,1.89 -0.23,3.71 -0.68,5.46 -0.46,1.76 -1.1,3.4 -1.95,4.92 -0.85,1.53 -1.85,2.91 -3.02,4.16 -1.18,1.25 -2.49,2.31 -3.92,3.2 -1.45,0.9 -3.01,1.58 -4.67,2.07 -1.68,0.5 -3.42,0.74 -5.25,0.74zm0 -8.21c1.54,0 2.96,-0.34 4.23,-0.99 1.28,-0.65 2.39,-1.55 3.31,-2.67 0.91,-1.13 1.62,-2.43 2.13,-3.92 0.51,-1.49 0.75,-3.07 0.75,-4.76 0,-1.68 -0.26,-3.28 -0.77,-4.78 -0.5,-1.5 -1.23,-2.81 -2.15,-3.93 -0.93,-1.13 -2.02,-2.02 -3.3,-2.68 -1.28,-0.65 -2.68,-0.97 -4.2,-0.97 -1.53,0 -2.91,0.32 -4.19,0.97 -1.28,0.66 -2.37,1.55 -3.28,2.68 -0.92,1.12 -1.65,2.43 -2.17,3.93 -0.52,1.5 -0.79,3.1 -0.79,4.78 0,1.69 0.27,3.27 0.79,4.76 0.52,1.49 1.25,2.79 2.17,3.92 0.91,1.12 2,2.02 3.28,2.67 1.28,0.65 2.66,0.99 4.19,0.99zm52.62 -32.16l15.28 0 0 7.19 -3.27 0 0 32.47 -8.81 0 -16.73 -25.64 0 18.47 3.37 0 0 7.17 -15.25 0 0 -7.17 3.31 0 0 -25.3 -3.26 0 0 -7.19 12.15 0 16.63 25.98 0 -18.79 -3.42 0 0 -7.19zm28.96 32.49l4.16 0 0 -25.56 -4.89 0 0 5.13 -8.65 0 0 -12.06 36.59 0 0 12.06 -8.7 0 0 -5.13 -5.55 0 0 25.56 4.24 0 0 7.17 -17.2 0 0 -7.17zm51.5 0l4 0 -1.8 -5.69 -12.37 0 -1.8 5.69 4.25 0 0 7.17 -15.24 0 0 -7.17 2.98 0 10.97 -32.49 10.62 0 10.72 32.49 2.92 0 0 7.17 -15.25 0 0 -7.17zm-8.06 -12.39l8.12 0 -4.1 -12.91 -4.02 12.91z"/>
  </g>
 </g>
</svg>
